<?xml version="1.0" encoding="utf-8"?>
<!-- Generator: Adobe Illustrator 23.0.5, SVG Export Plug-In . SVG Version: 6.00 Build 0)  -->
<svg version="1.1" xmlns="http://www.w3.org/2000/svg" xmlns:xlink="http://www.w3.org/1999/xlink" x="0px" y="0px"
	 viewBox="0 0 3000 3000" style="enable-background:new 0 0 3000 3000;" xml:space="preserve">
<style type="text/css">
	.st0{display:none;}
	.st1{display:inline;fill:#F7F7F7;}
	.st2{fill:#CDEDED;}
	.st3{display:none;fill:#FFFFFF;}
	.st4{fill:#CDEDED;}
	.st5{fill:#003748;}
</style>
<g id="Layer_2" class="st0">
	<rect x="3185.2" y="16.78" class="st1" width="2964.88" height="1127.75"/>
</g>
<!-- <g id="Layer_5">
	<rect x="0.26" y="3.89" class="st2" width="2992.22" height="2992.22"/>
</g> -->
<g id="Layer_3">
	<rect x="0" y="0" class="st3" width="3000" height="3000"/>
	<g id="Layer_4">
	</g>
	<g>
		<g>
			<g>
				<g>
					<path class="st4" d="M1024.77,2159.54c-9.6,0-18.78-2.15-27.27-6.4c-12.36-6.18-22.35-16.26-28.15-28.4
						c-4.29-8.6-6.44-17.77-6.44-27.38v-140.04h25.93v144.15l0.06,0.42c2.21,16.25,15.11,29.15,31.36,31.36l0.41,0.06l106.75,0.29
						v25.95H1024.77z"/>
					<path class="st4" d="M1371.62,2159.24c-55.75,0-101.11-45.36-101.11-101.11c0-55.75,45.36-101.1,101.11-101.1h101.11v25.93
						h-101.11c-41.45,0-75.18,33.72-75.18,75.17c0,41.45,33.72,75.18,75.18,75.18h75.18v-53.47h-68.98v-25.93h94.91v105.33H1371.62z
						"/>
					<rect x="1641.95" y="1957.02" class="st4" width="25.93" height="202.21"/>
					<path class="st4" d="M1984.27,2159.54l-38.43-75.11l-1.01-2.02l-0.14-0.23c-8.18-13.38-22.3-21.36-37.79-21.36h-44.52v98.72
						h-25.93v-202.22h129.31c13.76,0,26.69,5.34,36.4,15.05c9.68,9.96,15.05,23.02,15.05,36.7c0,20.17-11.82,38.66-30.13,47.11
						c-4.61,2.17-9.51,3.53-14.61,4.06l-8.91,0.94l34.68,69.02l15.03,29.35H1984.27z M1862.38,2035.22l103.41-0.33
						c3.69,0,7.35-0.83,10.57-2.42c9.26-4.1,15.22-13.26,15.22-23.4c0-9.79-5.34-16.19-7.64-18.48c-2.74-2.74-8.74-7.34-18.18-7.34
						h-103.38V2035.22z"/>
					<polygon class="st4" points="774.88,2159.54 748.49,2108.01 661.03,1936.51 573.56,2108.03 547.19,2159.54 515.13,2159.54 
						534.2,2122.3 661.03,1873.41 787.85,2122.27 806.93,2159.54 					"/>
					<polygon class="st4" points="2445.56,2159.54 2419.18,2108.01 2331.72,1936.51 2244.24,2108.03 2217.88,2159.54 
						2185.82,2159.54 2204.89,2122.3 2331.72,1873.41 2458.53,2122.27 2477.61,2159.54 					"/>
				</g>
			</g>
			<rect x="577.19" y="2068.27" class="st4" width="173.36" height="25.93"/>
		</g>
		<path class="st5" d="M1524.42,1754.64l31.07,50.35L1524.42,1754.64L1524.42,1754.64z M1785.41,1337.8l-109.15,0.51l54.72-94.18
			l-234.61-403.68l-234.61,403.68l54.72,94.18l-109.15-0.51l-287.68,495.07h534.69l42.02-68.11l42.02,68.11h534.69L1785.41,1337.8z
			 M1294.02,1244.13l202.36-348.18l202.36,348.18l-46.94,80.78l-155.42-267.46l-155.42,267.46L1294.02,1244.13z M1651.79,1380.41
			l44.18,76.03l16.13,27.75l134.9,232.16h-88.36l-90.72-156.13l-16.12-27.75l-44.18-76.03l-16.12-27.75l-95.11-163.63l-95.11,163.63
			l-16.12,27.75l-44.18,76.03l-16.12,27.75l-90.72,156.13h-88.36l134.9-232.16l16.13-27.75l44.18-76.03l16.13-27.75l139.29-239.71
			l139.29,239.71L1651.79,1380.41z M968.12,1804.99l255.23-439.23l93.62,0.44l-219.67,378.04h120.61l-35.3,60.75H968.12z
			 M1555.49,1804.99h-1.54l-31.07-50.35l0,0l-26.52-42.99l-26.52,42.99l-31.07,50.35h-223.94l19.42-33.43l15.88-27.32l16.2-27.88
			l74.6-128.38l52.95-91.11l7.36-12.67l41.16-70.83l53.95-92.85l53.95,92.85l41.16,70.83l7.36,12.67l52.95,91.11v0l74.6,128.38
			l16.2,27.88l15.88,27.32l19.42,33.43H1555.49z M1774.84,1744.24h120.61l-219.67-378.04l93.62-0.44l255.23,439.23h-214.49
			L1774.84,1744.24z"/>
	</g>
</g>
</svg>
